<?xml version="1.0" encoding="UTF-8" standalone="no"?>
<!-- Created with Inkscape (http://www.inkscape.org/) -->

<svg
   xmlns:dc="http://purl.org/dc/elements/1.1/"
   xmlns:cc="http://creativecommons.org/ns#"
   xmlns:rdf="http://www.w3.org/1999/02/22-rdf-syntax-ns#"
   xmlns:svg="http://www.w3.org/2000/svg"
   xmlns="http://www.w3.org/2000/svg"
   xmlns:sodipodi="http://sodipodi.sourceforge.net/DTD/sodipodi-0.dtd"
   xmlns:inkscape="http://www.inkscape.org/namespaces/inkscape"
   id="svg4136"
   version="1.1"
   inkscape:version="0.91 r13725"
   xml:space="preserve"
   width="2160"
   height="1080"
   viewBox="0 0 2160 1080"
   sodipodi:docname="keyboard2basevector-15Nov.svg"><metadata
     id="metadata4142"><rdf:RDF><cc:Work
         rdf:about=""><dc:format>image/svg+xml</dc:format><dc:type
           rdf:resource="http://purl.org/dc/dcmitype/StillImage" /><dc:title></dc:title></cc:Work></rdf:RDF></metadata><defs
     id="defs4140"><clipPath
       clipPathUnits="userSpaceOnUse"
       id="clipPath4152"><path
         d="m 1,1 28797,0 0,14397 L 1,14398 1,1"
         id="path4154"
         inkscape:connector-curvature="0" /></clipPath><clipPath
       clipPathUnits="userSpaceOnUse"
       id="clipPath4352"><path
         d="m 0,0 28799,0 0,14399 L 0,14399 0,0"
         id="path4354"
         inkscape:connector-curvature="0" /></clipPath></defs><sodipodi:namedview
     pagecolor="#ffffff"
     bordercolor="#666666"
     borderopacity="1"
     objecttolerance="10"
     gridtolerance="10"
     guidetolerance="10"
     inkscape:pageopacity="0"
     inkscape:pageshadow="2"
     inkscape:window-width="1920"
     inkscape:window-height="1057"
     id="namedview4138"
     showgrid="false"
     inkscape:zoom="1.4142136"
     inkscape:cx="1595.8265"
     inkscape:cy="348.40643"
     inkscape:window-x="-8"
     inkscape:window-y="-8"
     inkscape:window-maximized="1"
     inkscape:current-layer="g4592" /><g
     id="g4144"
     inkscape:groupmode="layer"
     inkscape:label="keyboard2base-15Nov"
     transform="matrix(1.25,0,0,-1.25,0,1080)"><g
       id="g4146"
       transform="scale(0.06,0.06)"><g
         id="g4148"><g
           id="g4150"
           clip-path="url(#clipPath4152)"><path
             d="m 556,8973 17616,0"
             style="fill:none;stroke:#000000;stroke-width:1;stroke-linecap:round;stroke-linejoin:round;stroke-miterlimit:10;stroke-dasharray:none;stroke-opacity:1"
             id="path4156"
             inkscape:connector-curvature="0" /><path
             d="m 887,9398 16954,0"
             style="fill:none;stroke:#000000;stroke-width:1;stroke-linecap:round;stroke-linejoin:round;stroke-miterlimit:10;stroke-dasharray:none;stroke-opacity:1"
             id="path4158"
             inkscape:connector-curvature="0" /><g
             id="g4160"
             transform="matrix(0,1,-1,0,887.5,9492.5)"><path
               d="M 0,94.5 C -52.19091,94.5 -94.5,52.19091 -94.5,0"
               style="fill:none;stroke:#000000;stroke-width:1;stroke-linecap:round;stroke-linejoin:round;stroke-miterlimit:10;stroke-dasharray:none;stroke-opacity:1"
               id="path4162"
               inkscape:connector-curvature="0" /></g><path
             d="m 18361,13876 0,-4714"
             style="fill:none;stroke:#000000;stroke-width:1;stroke-linecap:round;stroke-linejoin:round;stroke-miterlimit:10;stroke-dasharray:none;stroke-opacity:1"
             id="path4164"
             inkscape:connector-curvature="0" /><path
             d="m 17936,13545 0,-4053"
             style="fill:none;stroke:#000000;stroke-width:1;stroke-linecap:round;stroke-linejoin:round;stroke-miterlimit:10;stroke-dasharray:none;stroke-opacity:1"
             id="path4166"
             inkscape:connector-curvature="0" /><g
             id="g4168"
             transform="matrix(0,1,-1,0,17841.5,9492.5)"><path
               d="m -94.5,0 c 0,-52.19091 42.30909,-94.5 94.5,-94.5"
               style="fill:none;stroke:#000000;stroke-width:1;stroke-linecap:round;stroke-linejoin:round;stroke-miterlimit:10;stroke-dasharray:none;stroke-opacity:1"
               id="path4170"
               inkscape:connector-curvature="0" /></g><path
             d="m 18172,14065 189,-189"
             style="fill:none;stroke:#000000;stroke-width:1;stroke-linecap:round;stroke-linejoin:round;stroke-miterlimit:10;stroke-dasharray:none;stroke-opacity:1"
             id="path4172"
             inkscape:connector-curvature="0" /><path
             d="m 18172,8973 189,189"
             style="fill:none;stroke:#000000;stroke-width:1;stroke-linecap:round;stroke-linejoin:round;stroke-miterlimit:10;stroke-dasharray:none;stroke-opacity:1"
             id="path4174"
             inkscape:connector-curvature="0" /><path
             d="m 367,13876 0,-4714"
             style="fill:none;stroke:#000000;stroke-width:1;stroke-linecap:round;stroke-linejoin:round;stroke-miterlimit:10;stroke-dasharray:none;stroke-opacity:1"
             id="path4176"
             inkscape:connector-curvature="0" /><path
             d="m 792,13545 0,-4053"
             style="fill:none;stroke:#000000;stroke-width:1;stroke-linecap:round;stroke-linejoin:round;stroke-miterlimit:10;stroke-dasharray:none;stroke-opacity:1"
             id="path4178"
             inkscape:connector-curvature="0" /><path
             d="m 556,14065 13420,0"
             style="fill:none;stroke:#000000;stroke-width:1;stroke-linecap:round;stroke-linejoin:round;stroke-miterlimit:10;stroke-dasharray:none;stroke-opacity:1"
             id="path4180"
             inkscape:connector-curvature="0" /><path
             d="m 14460,14065 3712,0"
             style="fill:none;stroke:#000000;stroke-width:1;stroke-linecap:round;stroke-linejoin:round;stroke-miterlimit:10;stroke-dasharray:none;stroke-opacity:1"
             id="path4182"
             inkscape:connector-curvature="0" /><path
             d="m 887,13639 13089,0"
             style="fill:none;stroke:#000000;stroke-width:1;stroke-linecap:round;stroke-linejoin:round;stroke-miterlimit:10;stroke-dasharray:none;stroke-opacity:1"
             id="path4184"
             inkscape:connector-curvature="0" /><path
             d="m 14460,13639 3381,0"
             style="fill:none;stroke:#000000;stroke-width:1;stroke-linecap:round;stroke-linejoin:round;stroke-miterlimit:10;stroke-dasharray:none;stroke-opacity:1"
             id="path4186"
             inkscape:connector-curvature="0" /><g
             id="g4188"
             transform="matrix(0,1,-1,0,17841.5,13545.5)"><path
               d="M 0.00906,-94.5 C 52.19643,-94.495 94.5,-52.18737 94.5,0"
               style="fill:none;stroke:#000000;stroke-width:1;stroke-linecap:round;stroke-linejoin:round;stroke-miterlimit:10;stroke-dasharray:none;stroke-opacity:1"
               id="path4190"
               inkscape:connector-curvature="0" /></g><g
             id="g4192"
             transform="matrix(0,1,-1,0,887.5,13545.5)"><path
               d="M 94.5,0 C 94.5,52.19091 52.19091,94.5 0,94.5"
               style="fill:none;stroke:#000000;stroke-width:1;stroke-linecap:round;stroke-linejoin:round;stroke-miterlimit:10;stroke-dasharray:none;stroke-opacity:1"
               id="path4194"
               inkscape:connector-curvature="0" /></g><path
             d="m 367,13876 189,189"
             style="fill:none;stroke:#000000;stroke-width:1;stroke-linecap:round;stroke-linejoin:round;stroke-miterlimit:10;stroke-dasharray:none;stroke-opacity:1"
             id="path4196"
             inkscape:connector-curvature="0" /><g
             id="g4198"
             transform="matrix(0,1,-1,0,9487.5,13852.5)"><path
               d="M 70.5,0 C 70.5,38.93608 38.93608,70.5 0,70.5 -38.93608,70.5 -70.5,38.93608 -70.5,0 c 0,-38.93608 31.56392,-70.5 70.5,-70.5 38.93608,0 70.5,31.56392 70.5,70.5"
               style="fill:none;stroke:#000000;stroke-width:1;stroke-linecap:round;stroke-linejoin:round;stroke-miterlimit:10;stroke-dasharray:none;stroke-opacity:1"
               id="path4200"
               inkscape:connector-curvature="0" /></g><g
             id="g4202"
             transform="matrix(0,1,-1,0,13551.5,13852.5)"><path
               d="M 70.5,0 C 70.5,38.93608 38.93608,70.5 0,70.5 -38.93608,70.5 -70.5,38.93608 -70.5,0 c 0,-38.93608 31.56392,-70.5 70.5,-70.5 38.93608,0 70.5,31.56392 70.5,70.5"
               style="fill:none;stroke:#000000;stroke-width:1;stroke-linecap:round;stroke-linejoin:round;stroke-miterlimit:10;stroke-dasharray:none;stroke-opacity:1"
               id="path4204"
               inkscape:connector-curvature="0" /></g><g
             id="g4206"
             transform="matrix(0,1,-1,0,14885.5,13852.5)"><path
               d="M 70.5,0 C 70.5,38.93608 38.93608,70.5 0,70.5 -38.93608,70.5 -70.5,38.93608 -70.5,0 c 0,-38.93608 31.56392,-70.5 70.5,-70.5 38.93608,0 70.5,31.56392 70.5,70.5"
               style="fill:none;stroke:#000000;stroke-width:1;stroke-linecap:round;stroke-linejoin:round;stroke-miterlimit:10;stroke-dasharray:none;stroke-opacity:1"
               id="path4208"
               inkscape:connector-curvature="0" /></g><g
             id="g4210"
             transform="matrix(0,1,-1,0,17369.5,13852.5)"><path
               d="M 70.5,0 C 70.5,38.93608 38.93608,70.5 0,70.5 -38.93608,70.5 -70.5,38.93608 -70.5,0 c 0,-38.93608 31.56392,-70.5 70.5,-70.5 38.93608,0 70.5,31.56392 70.5,70.5"
               style="fill:none;stroke:#000000;stroke-width:1;stroke-linecap:round;stroke-linejoin:round;stroke-miterlimit:10;stroke-dasharray:none;stroke-opacity:1"
               id="path4212"
               inkscape:connector-curvature="0" /></g><g
             id="g4214"
             transform="matrix(0,1,-1,0,18148.5,12836.5)"><path
               d="M 70.5,0 C 70.5,38.93608 38.93608,70.5 0,70.5 -38.93608,70.5 -70.5,38.93608 -70.5,0 c 0,-38.93608 31.56392,-70.5 70.5,-70.5 38.93608,0 70.5,31.56392 70.5,70.5"
               style="fill:none;stroke:#000000;stroke-width:1;stroke-linecap:round;stroke-linejoin:round;stroke-miterlimit:10;stroke-dasharray:none;stroke-opacity:1"
               id="path4216"
               inkscape:connector-curvature="0" /></g><g
             id="g4218"
             transform="matrix(0,1,-1,0,18148.5,10201.5)"><path
               d="M 70.5,0 C 70.5,38.93608 38.93608,70.5 0,70.5 -38.93608,70.5 -70.5,38.93608 -70.5,0 c 0,-38.93608 31.56392,-70.5 70.5,-70.5 38.93608,0 70.5,31.56392 70.5,70.5"
               style="fill:none;stroke:#000000;stroke-width:1;stroke-linecap:round;stroke-linejoin:round;stroke-miterlimit:10;stroke-dasharray:none;stroke-opacity:1"
               id="path4220"
               inkscape:connector-curvature="0" /></g><g
             id="g4222"
             transform="matrix(0,1,-1,0,17369.5,9185.5)"><path
               d="M 70.5,0 C 70.5,38.93608 38.93608,70.5 0,70.5 -38.93608,70.5 -70.5,38.93608 -70.5,0 c 0,-38.93608 31.56392,-70.5 70.5,-70.5 38.93608,0 70.5,31.56392 70.5,70.5"
               style="fill:none;stroke:#000000;stroke-width:1;stroke-linecap:round;stroke-linejoin:round;stroke-miterlimit:10;stroke-dasharray:none;stroke-opacity:1"
               id="path4224"
               inkscape:connector-curvature="0" /></g><g
             id="g4226"
             transform="matrix(0,1,-1,0,13366.5,9185.5)"><path
               d="M 70.5,0 C 70.5,38.93608 38.93608,70.5 0,70.5 -38.93608,70.5 -70.5,38.93608 -70.5,0 c 0,-38.93608 31.56392,-70.5 70.5,-70.5 38.93608,0 70.5,31.56392 70.5,70.5"
               style="fill:none;stroke:#000000;stroke-width:1;stroke-linecap:round;stroke-linejoin:round;stroke-miterlimit:10;stroke-dasharray:none;stroke-opacity:1"
               id="path4228"
               inkscape:connector-curvature="0" /></g><g
             id="g4230"
             transform="matrix(0,1,-1,0,9364.5,9185.5)"><path
               d="M 70.5,0 C 70.5,38.93608 38.93608,70.5 0,70.5 -38.93608,70.5 -70.5,38.93608 -70.5,0 c 0,-38.93608 31.56392,-70.5 70.5,-70.5 38.93608,0 70.5,31.56392 70.5,70.5"
               style="fill:none;stroke:#000000;stroke-width:1;stroke-linecap:round;stroke-linejoin:round;stroke-miterlimit:10;stroke-dasharray:none;stroke-opacity:1"
               id="path4232"
               inkscape:connector-curvature="0" /></g><g
             id="g4234"
             transform="matrix(0,1,-1,0,5362.5,9185.5)"><path
               d="M 70.5,0 C 70.5,38.93608 38.93608,70.5 0,70.5 -38.93608,70.5 -70.5,38.93608 -70.5,0 c 0,-38.93608 31.56392,-70.5 70.5,-70.5 38.93608,0 70.5,31.56392 70.5,70.5"
               style="fill:none;stroke:#000000;stroke-width:1;stroke-linecap:round;stroke-linejoin:round;stroke-miterlimit:10;stroke-dasharray:none;stroke-opacity:1"
               id="path4236"
               inkscape:connector-curvature="0" /></g><g
             id="g4238"
             transform="matrix(0,1,-1,0,5423.5,13852.5)"><path
               d="M 70.5,0 C 70.5,38.93608 38.93608,70.5 0,70.5 -38.93608,70.5 -70.5,38.93608 -70.5,0 c 0,-38.93608 31.56392,-70.5 70.5,-70.5 38.93608,0 70.5,31.56392 70.5,70.5"
               style="fill:none;stroke:#000000;stroke-width:1;stroke-linecap:round;stroke-linejoin:round;stroke-miterlimit:10;stroke-dasharray:none;stroke-opacity:1"
               id="path4240"
               inkscape:connector-curvature="0" /></g><g
             id="g4242"
             transform="matrix(0,1,-1,0,1359.5,13852.5)"><path
               d="M 70.5,0 C 70.5,38.93608 38.93608,70.5 0,70.5 -38.93608,70.5 -70.5,38.93608 -70.5,0 c 0,-38.93608 31.56392,-70.5 70.5,-70.5 38.93608,0 70.5,31.56392 70.5,70.5"
               style="fill:none;stroke:#000000;stroke-width:1;stroke-linecap:round;stroke-linejoin:round;stroke-miterlimit:10;stroke-dasharray:none;stroke-opacity:1"
               id="path4244"
               inkscape:connector-curvature="0" /></g><g
             id="g4246"
             transform="matrix(0,1,-1,0,580.5,12836.5)"><path
               d="M 70.5,0 C 70.5,38.93608 38.93608,70.5 0,70.5 -38.93608,70.5 -70.5,38.93608 -70.5,0 c 0,-38.93608 31.56392,-70.5 70.5,-70.5 38.93608,0 70.5,31.56392 70.5,70.5"
               style="fill:none;stroke:#000000;stroke-width:1;stroke-linecap:round;stroke-linejoin:round;stroke-miterlimit:10;stroke-dasharray:none;stroke-opacity:1"
               id="path4248"
               inkscape:connector-curvature="0" /></g><g
             id="g4250"
             transform="matrix(0,1,-1,0,580.5,10201.5)"><path
               d="M 70.5,0 C 70.5,38.93608 38.93608,70.5 0,70.5 -38.93608,70.5 -70.5,38.93608 -70.5,0 c 0,-38.93608 31.56392,-70.5 70.5,-70.5 38.93608,0 70.5,31.56392 70.5,70.5"
               style="fill:none;stroke:#000000;stroke-width:1;stroke-linecap:round;stroke-linejoin:round;stroke-miterlimit:10;stroke-dasharray:none;stroke-opacity:1"
               id="path4252"
               inkscape:connector-curvature="0" /></g><g
             id="g4254"
             transform="matrix(0,1,-1,0,1359.5,9185.5)"><path
               d="M 70.5,0 C 70.5,38.93608 38.93608,70.5 0,70.5 -38.93608,70.5 -70.5,38.93608 -70.5,0 c 0,-38.93608 31.56392,-70.5 70.5,-70.5 38.93608,0 70.5,31.56392 70.5,70.5"
               style="fill:none;stroke:#000000;stroke-width:1;stroke-linecap:round;stroke-linejoin:round;stroke-miterlimit:10;stroke-dasharray:none;stroke-opacity:1"
               id="path4256"
               inkscape:connector-curvature="0" /></g><path
             d="M 367,9162 556,8973"
             style="fill:none;stroke:#000000;stroke-width:1;stroke-linecap:round;stroke-linejoin:round;stroke-miterlimit:10;stroke-dasharray:none;stroke-opacity:1"
             id="path4258"
             inkscape:connector-curvature="0" /><path
             d="m 13976,14065 484,0"
             style="fill:none;stroke:#000000;stroke-width:1;stroke-linecap:round;stroke-linejoin:round;stroke-miterlimit:10;stroke-dasharray:none;stroke-opacity:1"
             id="path4260"
             inkscape:connector-curvature="0" /><path
             d="m 13976,13639 484,0"
             style="fill:none;stroke:#000000;stroke-width:1;stroke-linecap:round;stroke-linejoin:round;stroke-miterlimit:10;stroke-dasharray:none;stroke-opacity:1"
             id="path4262"
             inkscape:connector-curvature="0" /><path
             d="m 556,3067 17616,0"
             style="fill:none;stroke:#000000;stroke-width:1;stroke-linecap:round;stroke-linejoin:round;stroke-miterlimit:10;stroke-dasharray:none;stroke-opacity:1"
             id="path4264"
             inkscape:connector-curvature="0" /><path
             d="m 18172,8159 189,-189 0,-4714 -189,-189"
             style="fill:none;stroke:#000000;stroke-width:1;stroke-linecap:round;stroke-linejoin:round;stroke-miterlimit:10;stroke-dasharray:none;stroke-opacity:1"
             id="path4266"
             inkscape:connector-curvature="0" /><path
             d="m 367,7970 0,-4714"
             style="fill:none;stroke:#000000;stroke-width:1;stroke-linecap:round;stroke-linejoin:round;stroke-miterlimit:10;stroke-dasharray:none;stroke-opacity:1"
             id="path4268"
             inkscape:connector-curvature="0" /><path
             d="m 556,8159 13420,0"
             style="fill:none;stroke:#000000;stroke-width:1;stroke-linecap:round;stroke-linejoin:round;stroke-miterlimit:10;stroke-dasharray:none;stroke-opacity:1"
             id="path4270"
             inkscape:connector-curvature="0" /><path
             d="m 14460,8159 3712,0"
             style="fill:none;stroke:#000000;stroke-width:1;stroke-linecap:round;stroke-linejoin:round;stroke-miterlimit:10;stroke-dasharray:none;stroke-opacity:1"
             id="path4272"
             inkscape:connector-curvature="0" /><path
             d="m 367,7970 189,189"
             style="fill:none;stroke:#000000;stroke-width:1;stroke-linecap:round;stroke-linejoin:round;stroke-miterlimit:10;stroke-dasharray:none;stroke-opacity:1"
             id="path4274"
             inkscape:connector-curvature="0" /><g
             id="g4276"
             transform="matrix(0,1,-1,0,9487.5,7947.5)"><path
               d="M 70.5,0 C 70.5,38.93608 38.93608,70.5 0,70.5 -38.93608,70.5 -70.5,38.93608 -70.5,0 c 0,-38.93608 31.56392,-70.5 70.5,-70.5 38.93608,0 70.5,31.56392 70.5,70.5"
               style="fill:none;stroke:#000000;stroke-width:1;stroke-linecap:round;stroke-linejoin:round;stroke-miterlimit:10;stroke-dasharray:none;stroke-opacity:1"
               id="path4278"
               inkscape:connector-curvature="0" /></g><g
             id="g4280"
             transform="matrix(0,1,-1,0,13551.5,7947.5)"><path
               d="M 70.5,0 C 70.5,38.93608 38.93608,70.5 0,70.5 -38.93608,70.5 -70.5,38.93608 -70.5,0 c 0,-38.93608 31.56392,-70.5 70.5,-70.5 38.93608,0 70.5,31.56392 70.5,70.5"
               style="fill:none;stroke:#000000;stroke-width:1;stroke-linecap:round;stroke-linejoin:round;stroke-miterlimit:10;stroke-dasharray:none;stroke-opacity:1"
               id="path4282"
               inkscape:connector-curvature="0" /></g><g
             id="g4284"
             transform="matrix(0,1,-1,0,14885.5,7947.5)"><path
               d="M 70.5,0 C 70.5,38.93608 38.93608,70.5 0,70.5 -38.93608,70.5 -70.5,38.93608 -70.5,0 c 0,-38.93608 31.56392,-70.5 70.5,-70.5 38.93608,0 70.5,31.56392 70.5,70.5"
               style="fill:none;stroke:#000000;stroke-width:1;stroke-linecap:round;stroke-linejoin:round;stroke-miterlimit:10;stroke-dasharray:none;stroke-opacity:1"
               id="path4286"
               inkscape:connector-curvature="0" /></g><g
             id="g4288"
             transform="matrix(0,1,-1,0,17369.5,7947.5)"><path
               d="M 70.5,0 C 70.5,38.93608 38.93608,70.5 0,70.5 -38.93608,70.5 -70.5,38.93608 -70.5,0 c 0,-38.93608 31.56392,-70.5 70.5,-70.5 38.93608,0 70.5,31.56392 70.5,70.5"
               style="fill:none;stroke:#000000;stroke-width:1;stroke-linecap:round;stroke-linejoin:round;stroke-miterlimit:10;stroke-dasharray:none;stroke-opacity:1"
               id="path4290"
               inkscape:connector-curvature="0" /></g><g
             id="g4292"
             transform="matrix(0,1,-1,0,18148.5,6931.5)"><path
               d="M 70.5,0 C 70.5,38.93608 38.93608,70.5 0,70.5 -38.93608,70.5 -70.5,38.93608 -70.5,0 c 0,-38.93608 31.56392,-70.5 70.5,-70.5 38.93608,0 70.5,31.56392 70.5,70.5"
               style="fill:none;stroke:#000000;stroke-width:1;stroke-linecap:round;stroke-linejoin:round;stroke-miterlimit:10;stroke-dasharray:none;stroke-opacity:1"
               id="path4294"
               inkscape:connector-curvature="0" /></g><g
             id="g4296"
             transform="matrix(0,1,-1,0,18148.5,4296.5)"><path
               d="M 70.5,0 C 70.5,38.93608 38.93608,70.5 0,70.5 -38.93608,70.5 -70.5,38.93608 -70.5,0 c 0,-38.93608 31.56392,-70.5 70.5,-70.5 38.93608,0 70.5,31.56392 70.5,70.5"
               style="fill:none;stroke:#000000;stroke-width:1;stroke-linecap:round;stroke-linejoin:round;stroke-miterlimit:10;stroke-dasharray:none;stroke-opacity:1"
               id="path4298"
               inkscape:connector-curvature="0" /></g><g
             id="g4300"
             transform="matrix(0,1,-1,0,17369.5,3280.5)"><path
               d="M 70.5,0 C 70.5,38.93608 38.93608,70.5 0,70.5 -38.93608,70.5 -70.5,38.93608 -70.5,0 c 0,-38.93608 31.56392,-70.5 70.5,-70.5 38.93608,0 70.5,31.56392 70.5,70.5"
               style="fill:none;stroke:#000000;stroke-width:1;stroke-linecap:round;stroke-linejoin:round;stroke-miterlimit:10;stroke-dasharray:none;stroke-opacity:1"
               id="path4302"
               inkscape:connector-curvature="0" /></g><g
             id="g4304"
             transform="matrix(0,1,-1,0,13366.5,3280.5)"><path
               d="M 70.5,0 C 70.5,38.93608 38.93608,70.5 0,70.5 -38.93608,70.5 -70.5,38.93608 -70.5,0 c 0,-38.93608 31.56392,-70.5 70.5,-70.5 38.93608,0 70.5,31.56392 70.5,70.5"
               style="fill:none;stroke:#000000;stroke-width:1;stroke-linecap:round;stroke-linejoin:round;stroke-miterlimit:10;stroke-dasharray:none;stroke-opacity:1"
               id="path4306"
               inkscape:connector-curvature="0" /></g><g
             id="g4308"
             transform="matrix(0,1,-1,0,9364.5,3280.5)"><path
               d="M 70.5,0 C 70.5,38.93608 38.93608,70.5 0,70.5 -38.93608,70.5 -70.5,38.93608 -70.5,0 c 0,-38.93608 31.56392,-70.5 70.5,-70.5 38.93608,0 70.5,31.56392 70.5,70.5"
               style="fill:none;stroke:#000000;stroke-width:1;stroke-linecap:round;stroke-linejoin:round;stroke-miterlimit:10;stroke-dasharray:none;stroke-opacity:1"
               id="path4310"
               inkscape:connector-curvature="0" /></g><g
             id="g4312"
             transform="matrix(0,1,-1,0,5362.5,3280.5)"><path
               d="M 70.5,0 C 70.5,38.93608 38.93608,70.5 0,70.5 -38.93608,70.5 -70.5,38.93608 -70.5,0 c 0,-38.93608 31.56392,-70.5 70.5,-70.5 38.93608,0 70.5,31.56392 70.5,70.5"
               style="fill:none;stroke:#000000;stroke-width:1;stroke-linecap:round;stroke-linejoin:round;stroke-miterlimit:10;stroke-dasharray:none;stroke-opacity:1"
               id="path4314"
               inkscape:connector-curvature="0" /></g><g
             id="g4316"
             transform="matrix(0,1,-1,0,5423.5,7947.5)"><path
               d="M 70.5,0 C 70.5,38.93608 38.93608,70.5 0,70.5 -38.93608,70.5 -70.5,38.93608 -70.5,0 c 0,-38.93608 31.56392,-70.5 70.5,-70.5 38.93608,0 70.5,31.56392 70.5,70.5"
               style="fill:none;stroke:#000000;stroke-width:1;stroke-linecap:round;stroke-linejoin:round;stroke-miterlimit:10;stroke-dasharray:none;stroke-opacity:1"
               id="path4318"
               inkscape:connector-curvature="0" /></g><g
             id="g4320"
             transform="matrix(0,1,-1,0,1359.5,7947.5)"><path
               d="M 70.5,0 C 70.5,38.93608 38.93608,70.5 0,70.5 -38.93608,70.5 -70.5,38.93608 -70.5,0 c 0,-38.93608 31.56392,-70.5 70.5,-70.5 38.93608,0 70.5,31.56392 70.5,70.5"
               style="fill:none;stroke:#000000;stroke-width:1;stroke-linecap:round;stroke-linejoin:round;stroke-miterlimit:10;stroke-dasharray:none;stroke-opacity:1"
               id="path4322"
               inkscape:connector-curvature="0" /></g><g
             id="g4324"
             transform="matrix(0,1,-1,0,580.5,6931.5)"><path
               d="M 70.5,0 C 70.5,38.93608 38.93608,70.5 0,70.5 -38.93608,70.5 -70.5,38.93608 -70.5,0 c 0,-38.93608 31.56392,-70.5 70.5,-70.5 38.93608,0 70.5,31.56392 70.5,70.5"
               style="fill:none;stroke:#000000;stroke-width:1;stroke-linecap:round;stroke-linejoin:round;stroke-miterlimit:10;stroke-dasharray:none;stroke-opacity:1"
               id="path4326"
               inkscape:connector-curvature="0" /></g><g
             id="g4328"
             transform="matrix(0,1,-1,0,580.5,4296.5)"><path
               d="M 70.5,0 C 70.5,38.93608 38.93608,70.5 0,70.5 -38.93608,70.5 -70.5,38.93608 -70.5,0 c 0,-38.93608 31.56392,-70.5 70.5,-70.5 38.93608,0 70.5,31.56392 70.5,70.5"
               style="fill:none;stroke:#000000;stroke-width:1;stroke-linecap:round;stroke-linejoin:round;stroke-miterlimit:10;stroke-dasharray:none;stroke-opacity:1"
               id="path4330"
               inkscape:connector-curvature="0" /></g><g
             id="g4332"
             transform="matrix(0,1,-1,0,1359.5,3280.5)"><path
               d="M 70.5,0 C 70.5,38.93608 38.93608,70.5 0,70.5 -38.93608,70.5 -70.5,38.93608 -70.5,0 c 0,-38.93608 31.56392,-70.5 70.5,-70.5 38.93608,0 70.5,31.56392 70.5,70.5"
               style="fill:none;stroke:#000000;stroke-width:1;stroke-linecap:round;stroke-linejoin:round;stroke-miterlimit:10;stroke-dasharray:none;stroke-opacity:1"
               id="path4334"
               inkscape:connector-curvature="0" /></g><path
             d="M 367,3256 556,3067"
             style="fill:none;stroke:#000000;stroke-width:1;stroke-linecap:round;stroke-linejoin:round;stroke-miterlimit:10;stroke-dasharray:none;stroke-opacity:1"
             id="path4336"
             inkscape:connector-curvature="0" /><path
             d="m 13976,8159 484,0"
             style="fill:none;stroke:#000000;stroke-width:1;stroke-linecap:round;stroke-linejoin:round;stroke-miterlimit:10;stroke-dasharray:none;stroke-opacity:1"
             id="path4338"
             inkscape:connector-curvature="0" /><g
             id="g4340"
             transform="matrix(0,1,-1,0,17126.5,7451.5)"><path
               d="M 70.5,0 C 70.5,38.93608 38.93608,70.5 0,70.5 -38.93608,70.5 -70.5,38.93608 -70.5,0 c 0,-38.93608 31.56392,-70.5 70.5,-70.5 38.93608,0 70.5,31.56392 70.5,70.5"
               style="fill:none;stroke:#000000;stroke-width:1;stroke-linecap:round;stroke-linejoin:round;stroke-miterlimit:10;stroke-dasharray:none;stroke-opacity:1"
               id="path4342"
               inkscape:connector-curvature="0" /></g><g
             id="g4344"
             transform="matrix(0,1,-1,0,1600.5,7451.5)"><path
               d="M 70.5,0 C 70.5,38.93608 38.93608,70.5 0,70.5 -38.93608,70.5 -70.5,38.93608 -70.5,0 c 0,-38.93608 31.56392,-70.5 70.5,-70.5 38.93608,0 70.5,31.56392 70.5,70.5"
               style="fill:none;stroke:#000000;stroke-width:1;stroke-linecap:round;stroke-linejoin:round;stroke-miterlimit:10;stroke-dasharray:none;stroke-opacity:1"
               id="path4346"
               inkscape:connector-curvature="0" /></g><g
             id="g4592"
             transform="matrix(13.333333,0,0,-13.333333,4639.416,8642.2261)"><path
               id="path4594"
               d="m 376.82101,385.49738 c 0.38005,0.6866 0.39608,1.6739 0.70896,2.44949 0.14368,-2.76504 -1.63486,-3.95159 -2.64279,-5.35015 0.37452,0.0516 0.358,0.39531 0.70928,0.32236 0.40392,0.47654 0.76349,0.9983 1.22463,1.41793 -0.3814,-1.8103 -2.1951,-2.18799 -3.60986,-2.96515 -0.6007,0.0706 -1.23435,0.15576 -1.74029,-0.0642 -0.35428,-0.15426 -0.65119,-0.55107 -0.96699,-0.77377 -1.1633,-0.81992 -2.54867,-1.28279 -4.12528,-1.61146 -0.66542,-0.34126 -1.741,-0.42256 -2.70729,-0.57992 -0.27707,-0.0451 -0.56472,-0.16944 -0.83801,-0.19362 -0.71315,-0.0624 -1.39848,0.14819 -2.12712,0.19362 -0.29272,0.35903 -0.86449,0.29999 -1.28912,0.51566 -0.19614,0.0995 -0.32101,0.29533 -0.51558,0.38661 -0.3825,0.17916 -1.14915,0.42406 -1.35368,0.25779 -0.0785,0.33596 -0.50965,0.20856 -0.77353,0.25787 -1.52382,0.28482 -3.72595,0.63389 -5.41463,0.32236 -1.40458,-0.25914 -2.50489,-1.00587 -3.54538,-1.48241 -0.2253,-0.10337 -0.53249,-0.15735 -0.77352,-0.2578 -0.40012,-0.16707 -0.62266,-0.27881 -1.03148,-0.38692 -0.0856,-0.0226 -0.11117,-0.11854 -0.1933,-0.12882 -0.12448,-0.0159 -0.30387,0.0769 -0.45125,0.0643 -0.17008,-0.0145 -0.33019,-0.12534 -0.45111,-0.12882 -0.28252,-0.008 -0.67094,0.19275 -1.03147,0 0.0463,-0.74777 1.12963,-0.11957 1.28927,-0.51566 -1.09241,-0.47472 -2.11851,0.57912 -3.28751,0.4511 -1.30341,-0.14266 -2.44127,-0.45276 -3.28749,-0.96676 -0.53234,0.0288 -1.5545,-0.26284 -2.19154,-0.12906 -0.45719,-0.37609 -0.93137,-0.008 -1.54707,-0.0645 -0.25928,-0.0236 -0.42146,-0.20483 -0.64455,-0.25786 -0.7175,-0.16992 -1.08664,0.10968 -1.54698,0.12905 -0.51116,0.0215 -0.93569,-0.31683 -1.41817,-0.38693 -0.22239,-0.0322 -0.42485,0.0679 -0.64456,0.0645 -0.36328,-0.006 -0.80261,-0.21638 -1.16021,-0.12881 -0.16351,0.0399 -0.16407,0.26964 -0.38677,0.1933 -0.0115,-0.0754 -0.10199,-0.0701 -0.19346,-0.0645 -0.64969,-0.70383 -1.41025,-1.29718 -2.51405,-1.54683 0.0696,0.48491 0.65507,0.58094 0.83802,1.03132 0.0844,0.20801 0.14035,0.53685 0.0645,0.83802 -1.02879,-0.0671 -1.05416,-1.13762 -1.86934,-1.41825 0.0374,0.40471 -0.12264,0.74936 -0.0645,1.09581 0.0915,0.54553 0.58608,0.75488 0.70912,1.22463 -0.82798,0.83335 -2.22962,1.41452 -1.9339,3.15877 -0.13269,0.19116 -0.33129,0.65467 -0.2578,0.83801 0.1609,-0.054 0.1357,-0.29429 0.38685,-0.25787 0.18137,0.23163 -0.27146,0.65206 -0.0645,0.90227 0.13126,-0.25542 0.25351,-0.51985 0.58014,-0.58015 -0.005,-0.32022 0.27605,-0.57177 0.38677,-0.83802 0.0796,-0.19116 -0.0326,-0.53635 0.25779,-0.57992 0.1146,0.56025 -0.0602,0.9421 -0.1289,1.35369 -0.13854,0.83011 -0.21195,1.81766 -0.38676,2.44924 -0.0551,0.19908 -0.15751,0.42676 -0.19346,0.64473 -0.23392,1.42108 -0.0702,2.84525 -0.25779,4.25433 -0.0326,0.24444 -0.23464,0.43275 -0.1289,0.70928 0.0503,0.0142 0.0748,0.054 0.0645,0.12873 0.68644,0.25914 1.14726,0.74358 1.67604,1.16039 0.35356,0.009 0.69458,0.007 0.96691,-0.0645 0.1496,-0.1083 -0.062,-0.57754 0.25779,-0.51566 0.0187,0.32497 -0.10027,0.78792 0.25787,0.77354 0.29454,-0.006 0.26949,-0.33208 0.32235,-0.58015 0.22192,-0.1432 0.43996,-0.29035 0.64455,-0.45109 0.0943,-0.65286 -0.16879,-0.94842 -0.19346,-1.4825 0.24382,-0.0934 0.12369,0.17702 0.32237,0.12882 0,-0.17181 0,-0.34385 0,-0.51566 0.22634,-0.0378 0.21203,0.30449 0.38675,0.12874 0.003,-0.30371 -0.11311,-0.4884 -0.12889,-0.77354 0.0847,-0.0656 0.23764,-0.0632 0.32228,-0.12874 0.0813,-0.97149 0.63065,-1.47514 1.16038,-1.99838 -0.007,-0.43727 0.34662,-0.74414 0.45109,-1.16014 0.099,-0.39396 0.0303,-0.85375 0.12906,-1.3536 0.44035,-0.54348 0.61484,-0.0836 1.16022,0.12873 0.20381,0.0794 0.4401,0.0645 0.58014,0.12906 0.10612,0.0488 0.1873,0.25913 0.32228,0.32212 0.1639,0.0766 0.34014,7e-4 0.45125,0.0645 0.27747,0.15924 0.53313,0.45979 0.77353,0.64472 0.318,0.24475 0.65467,0.38613 0.77345,0.64447 0.1504,0 0.30087,0 0.45125,0 0.26751,0.16684 0.51432,0.37689 0.70912,0.5159 0.10761,0.0766 0.24672,0.0634 0.3222,0.12873 0.22073,0.19093 0.37468,0.53795 0.64471,0.77354 0.28301,0.24704 0.59106,0.35855 0.77354,0.64472 0.74074,1.16139 -0.0951,3.11047 1.03132,3.99646 0.12194,0.0713 0.3045,0.0821 0.45125,0.12882 0.27352,0.16469 0.30331,0.49914 0.57999,0.83801 0.24538,0.30031 0.95917,0.74516 1.03148,1.09589 0.0458,0.22262 -0.11879,0.49962 -0.12889,0.77345 -0.0274,0.73473 0.27398,1.57084 0.58006,2.19161 0.30308,0.61453 0.82214,1.19759 0.90251,1.86935 0.0501,0.41987 -0.15632,0.90202 -0.1289,1.35368 0.0146,0.24047 0.16185,0.55312 0.19331,0.83801 0.0821,0.74152 0.33745,0.81311 0.51558,1.28911 0.21827,0.58284 0.0648,1.58816 0.12889,2.32067 0.0162,0.18445 0.0863,0.30695 0.0645,0.45117 -0.03,0.19829 -0.24088,0.35042 -0.32235,0.58023 -0.20918,0.59113 -0.12344,1.41374 -0.38677,1.80478 -0.15687,0.23313 -0.5498,0.27145 -0.70896,0.51558 -0.14477,0.22199 -0.0834,0.53122 -0.19346,0.77353 -0.25171,0.55422 -0.83193,1.00903 -0.83803,1.67603 0.77851,0.45031 2.206,0.12249 3.15861,0.25779 0.0131,0.20176 -0.0435,0.47314 0.0645,0.58022 1.26286,0.17466 2.57237,-0.12486 3.73867,-0.25786 0.17733,-0.36614 0.18832,-0.86924 0.38677,-1.28912 0.1068,-0.22602 0.31223,-0.26782 0.32235,-0.5159 0.0149,-0.36329 -0.34093,-0.46002 -0.32235,-0.90226 0.2694,-0.0545 0.30457,0.12541 0.51565,0.12881 0.07,-0.165 -0.19584,-0.30717 0,-0.3866 0.2054,0.15996 0.27881,0.45165 0.58015,0.51558 0.15734,-0.65174 -0.69972,-0.78862 -0.77345,-1.41817 0.33492,0.067 0.52403,0.57289 0.83801,0.45118 -0.23313,-0.60457 -0.61436,-1.06151 -0.83801,-1.67581 0.34828,-0.0907 0.50696,0.62378 0.64471,0.32237 -0.006,-0.27984 -0.27565,-0.34432 -0.38685,-0.58015 -0.0903,-0.19124 -0.0485,-0.3851 -0.12897,-0.58023 -0.10887,-0.26411 -0.36084,-0.46942 -0.45124,-0.77345 -0.0984,-0.33208 -0.14913,-0.78822 -0.19331,-1.16046 -0.2201,-1.84957 0.10199,-4.00563 0.51566,-5.54344 0.64597,-0.60013 0.5584,-1.93414 1.0958,-2.64279 2.1303,-0.45347 3.7974,0.63926 5.67244,0.70904 2.2937,0.0852 3.23826,-0.8674 4.76991,-1.67603 0.5317,0.45686 0.48239,1.49451 1.0314,1.93382 -0.0532,0.18232 0.091,0.16708 0.0645,0.32236 0.69292,0.46738 1.3898,0.93055 2.19162,1.28911 0.0656,0.0847 0.0632,0.23764 0.12874,0.32236 0.23921,0.0457 0.27675,-0.11025 0.51565,-0.0645 0.54483,0.36163 0.95024,1.03393 0.77346,1.93383 -0.0949,0.4842 -0.69189,1.18614 -1.09549,1.54698 -0.49836,0.44509 -1.22408,0.81414 -1.80509,1.22486 -0.68984,0.48761 -1.30753,0.95102 -1.6758,1.35345 0.1005,0.41915 -0.10727,0.88203 -0.0645,1.35367 0.0368,0.40731 0.33318,0.87129 0.38669,1.35367 0.0529,0.47678 -0.0844,0.99118 0,1.41809 0.0346,0.17418 0.26174,0.43861 0.38693,0.77353 0.14003,0.37586 0.1285,0.89752 0.25786,1.22486 0.44612,1.12972 1.83939,0.29929 2.44949,-0.38693 0.39814,-0.448 0.52743,-0.9914 0.64439,-1.61154 -0.2174,-0.46998 -0.70271,-0.67222 -0.77352,-1.28911 -0.10727,0 -0.2148,0 -0.32227,0 -0.0493,-0.53067 -0.74382,-0.41656 -0.77346,-0.96675 0.30181,-0.12487 0.38186,-0.36828 0.64464,-0.0645 0.14659,-0.0467 -0.0593,-0.44618 0.19329,-0.38691 0.42779,0.28141 0.36765,1.05044 0.77346,1.35368 0.30323,-0.73236 -0.002,-1.60862 0.19354,-2.32044 0.1474,-0.53431 0.92772,-1.07146 1.48249,-1.16045 0.31399,-0.63152 0.90772,-0.98295 1.67604,-1.16037 0.39522,-0.63603 0.76167,-1.30097 1.41816,-1.67573 -0.0157,-0.57935 -0.15315,-0.78632 -0.4514,-1.22487 -0.15956,-0.23454 -0.39452,-0.48214 -0.51567,-0.70902 -0.18097,-0.33911 -0.42405,-0.78998 -0.1933,-1.22487 0.4349,-0.0265 0.45662,0.36014 0.64471,0.58022 0.54554,0.35279 1.03677,0.71474 1.41785,1.16038 0.15956,0.18619 0.32426,0.36172 0.38693,0.51566 0.08,0.19717 0.0139,0.53843 0.12873,0.83802 0.0431,0.11174 0.15711,0.20855 0.19355,0.32235 0.41102,1.28833 0.0249,2.66769 -0.25779,3.93191 -0.0785,0.34993 -0.0465,0.70817 -0.12914,0.96674 -0.10199,0.31897 -0.40004,0.54982 -0.51559,0.83803 -0.26102,0.6504 -0.20222,1.31977 -0.45116,1.86926 -0.32149,0.19441 -0.47655,0.55502 -0.77346,0.77376 -0.009,0.52855 -0.19725,0.87715 -0.2581,1.35336 -0.0275,0.17814 0.24048,0.0607 0.2581,0.19362 -0.29635,-0.0428 -0.12905,0.24942 -0.19354,0.38661 -0.11806,0.25156 -0.4921,0.50563 -0.45117,0.90251 0.23084,0.13664 0.51622,0.13933 0.77354,0.12881 0.38526,-0.0155 1.34498,-0.19614 1.67603,-0.32203 0.47867,-0.18233 0.75582,-0.71734 1.22455,-0.70929 0.0282,-0.51953 0.12644,-1.0536 0,-1.54698 -0.16526,-0.15679 -0.49939,-0.14525 -0.51559,-0.45109 0.0275,-0.23029 0.16177,-0.35389 0.32228,-0.45141 0.17023,-0.0875 0.10314,-0.41261 0.38692,-0.38661 0.21243,-0.0126 -0.0319,0.29921 0.32212,0.25779 0.14502,-0.12905 -0.11071,-0.40233 0.12905,-0.51558 0.21006,-0.11059 0.31027,0.30869 0.32236,0 0.10704,-0.50491 -0.35887,-0.86639 -0.0645,-1.16038 0.1398,0.0965 0.15,0.3226 0.38685,0.32229 -0.14446,-0.92844 -0.93215,-2.07332 -0.25811,-3.02965 0.16422,-0.0701 0.2502,0.30182 0.25811,0 -0.13997,-0.51383 -0.33595,-0.95995 -0.25811,-1.48248 0.0435,-0.2909 0.29351,-0.62132 0.38692,-0.96699 0.14953,-0.55376 0.16525,-1.15541 0.25787,-1.61156 0.13087,-0.64494 0.50729,-1.33265 0.45118,-1.86925 -0.0373,-0.35801 -0.48714,-0.54609 -0.32212,-0.96683 0.36669,-0.0444 0.36226,0.55343 0.64439,0.38667 -0.0615,-0.67355 0.28411,-0.89831 0.38693,-1.35343 0.17726,-0.78658 0.0282,-1.46645 0.58022,-1.74045 -0.21038,1.70196 -0.45062,3.37405 -0.90259,4.83449 0.36962,-0.33002 0.43545,-0.86529 0.64441,-1.35368 0.1884,-0.43939 0.52561,-0.89997 0.64471,-1.35367 0.0457,-0.17386 -0.0275,-0.40187 0,-0.58024 0.041,-0.26434 0.18208,-0.59752 0.25786,-0.90227 0.0797,-0.32053 0.16842,-0.6602 0.25788,-0.96698 0.41,-1.40663 0.56679,-2.90801 1.16037,-4.06103 -0.0457,0.59279 -0.0855,1.29781 -0.12905,1.93383 -0.0314,0.46137 -0.20776,0.96943 0,1.2891 0.0344,-0.28798 0.1941,-0.45061 0.12905,-0.83801 0.49985,-0.69924 0.58648,-1.96425 0.4511,-3.02939 -0.0194,-0.15427 -0.11278,-0.3079 -0.12874,-0.45142 -0.0307,-0.27281 0.0563,-0.56134 0,-0.83778 -0.13988,-0.68375 -1.07779,-1.24975 -0.51566,-1.80509 0.0695,0.22848 0.32662,0.3557 0.45094,0.58023 z M 345.75138,403.804 c -0.0497,0.31209 -0.24601,0.60535 -0.25787,0.90227 -0.0218,0.54948 0.31927,1.01876 -0.12889,1.48272 -0.2337,-0.50095 -0.12298,-1.23378 -0.2578,-1.93389 -0.0998,-0.51828 -0.42004,-0.97174 -0.45125,-1.48242 -0.0346,-0.57051 -0.0152,-1.24036 0,-1.86934 0.0133,-0.54316 0.18477,-1.06933 0.12898,-1.61147 -0.0187,-0.18184 -0.15134,-0.33705 -0.19331,-0.51566 -0.0966,-0.41095 -0.0844,-0.98801 -0.12889,-1.48273 -0.0852,-0.9466 -0.1447,-1.73158 -0.0645,-2.77184 -0.0181,-0.10382 0.061,-0.11094 0.0645,-0.19323 0.0645,0 0.12889,0 0.19331,0 0.43307,0.6538 0.90282,1.68363 0.77368,2.77177 -0.0719,0.60456 -0.37902,1.16828 -0.58014,1.61154 0.24861,0.71972 0.27066,1.47199 0.45109,2.25595 0.22356,0.97119 0.62866,1.72132 0.45109,2.83633 z m 11.4739,-23.97912 c 0.0847,0.0228 0.10118,0.11358 0.19331,0.12906 -0.0262,0.16051 -0.24998,0.003 -0.19331,-0.12906 z m 14.3744,14.76125 c -0.21741,-0.0493 0.0834,-0.17838 -0.12882,-0.38661 -0.42936,-0.57051 -0.63025,-1.3736 -0.64471,-2.19169 0.30956,-0.14186 0.27597,-0.62662 0.51566,-0.83802 0.35405,-1.27781 0.65625,-2.57934 0.96699,-3.7386 -0.0183,-0.10417 0.0609,-0.11093 0.0645,-0.19331 0.0642,0 0.12882,0 0.19329,0 0.30403,1.04682 -0.17014,2.54631 0.0642,3.41633 -0.44707,1.27417 -0.41055,2.75896 -1.03116,3.9319 z m 0.64464,-0.0645 c 0.0279,0.37167 -0.007,0.68091 -0.38685,0.64473 0.45347,-1.11495 0.36764,-2.76925 0.90251,-3.80317 -0.0373,-0.13483 -0.15972,-0.18391 -0.12906,-0.38661 0.2363,0.043 0.17306,0.38559 0.32235,0.51566 -0.28947,0.8396 -0.0647,2.17019 -0.70895,3.02939 z m 2.38507,-2.70735 c -0.13348,-0.0382 -0.42336,0.0797 -0.45118,-0.0642 0.12566,-0.23978 0.53242,-0.19805 0.70897,-0.38692 0.12771,0.11128 -0.30346,0.20855 -0.25779,0.45117 z m 1.54691,-3.48057 c -0.28245,-0.24468 -0.19016,-0.9636 0,-1.22486 0.16896,0.32109 -0.0918,0.76617 0,1.22486 z"
               inkscape:connector-curvature="0" /><text
               xml:space="preserve"
               style="font-style:normal;font-weight:normal;font-size:40px;line-height:125%;font-family:Sans;letter-spacing:0px;word-spacing:0px;fill:#000000;fill-opacity:1;stroke:none;stroke-width:1px;stroke-linecap:butt;stroke-linejoin:miter;stroke-opacity:1"
               x="338.82129"
               y="414.64493"
               id="text4610"
               sodipodi:linespacing="125%"><tspan
                 sodipodi:role="line"
                 id="tspan4612"
                 x="338.82129"
                 y="414.64493"
                 style="font-style:normal;font-variant:normal;font-weight:normal;font-stretch:normal;font-size:5px;font-family:'Gill Sans Ultra Bold';-inkscape-font-specification:'Gill Sans Ultra Bold, '">BASEPLATE</tspan></text>
</g></g></g><g
         id="g4348"><g
           id="g4350"
           clip-path="url(#clipPath4352)"><path
             d="M 28798,0 0,0 0,14398"
             style="fill:none;stroke:#545454;stroke-width:13.33333302;stroke-linecap:round;stroke-linejoin:round;stroke-miterlimit:10;stroke-dasharray:none;stroke-opacity:1"
             id="path4356"
             inkscape:connector-curvature="0" /></g></g></g></g></svg>